# xmcd
#
# Track frame offsets:
#	150
#	16359
#	38101
#	53260
#	69061
#	85776
#	102705
#	118284
#	137226
#	155722
#	166297
#	178785
#	190494
#	206027
#	221336
#	238988
#	252311
#	267796
#
# Disc length: 4011 seconds
#
# Revision: 3
# Processed by: cddbd v1.5.2PL0 Copyright (c) Steve Scherf et al.
# Submitted via: audiograbber 1.83.01
#
DISCID=060fa912
DTITLE=BZN - The singles Collection 1965-2005  CD3
DYEAR=2005
DGENRE=Schlager
TTITLE0=Santo Domingo
TTITLE1=Sing Of Love And Faith (Live)
TTITLE2=Mama (Live)
TTITLE3=La Spagnola (Live)
TTITLE4=Wedding Bells
TTITLE5=Mother
TTITLE6=The Gypsy Music
TTITLE7=Mexican Night (Live)
TTITLE8=Where The Nightingales Sing
TTITLE9=Waiting For You
TTITLE10=Everyday I Have To Cry
TTITLE11=Bad Bad Woman
TTITLE12=Rolling Around The Band
TTITLE13=Sweet Silver Anny
TTITLE14=Barber's Rock
TTITLE15=Love Me Like A Lion
TTITLE16=Goodbye Sue
TTITLE17=Hitmedley 2005
EXTD=
EXTT0=
EXTT1=
EXTT2=
EXTT3=
EXTT4=
EXTT5=
EXTT6=
EXTT7=
EXTT8=
EXTT9=
EXTT10=
EXTT11=
EXTT12=
EXTT13=
EXTT14=
EXTT15=
EXTT16=
EXTT17=
PLAYORDER=
